<svg xmlns="http://www.w3.org/2000/svg" viewBox="0 0 512 512" role="img" aria-labelledby="title desc">
  <title id="title">PredixAI BR</title>
  <desc id="desc">Marca provisória vetorial da aplicação PredixAI Robô de Listas</desc>
  <rect width="512" height="512" rx="96" fill="#050b12"/>
  <circle cx="256" cy="224" r="168" fill="none" stroke="#70ff00" stroke-width="8" opacity="0.75"/>
  <path d="M176 110h102c79 0 126 42 126 111 0 70-47 112-126 112h-38v88h-64V110zm64 59v106h35c42 0 63-18 63-53 0-35-21-53-63-53h-35z" fill="#ffffff"/>
  <g fill="#ffffff">
    <rect x="104" y="168" width="22" height="22"/><rect x="132" y="140" width="18" height="18"/>
    <rect x="132" y="198" width="18" height="18"/><rect x="98" y="226" width="16" height="16"/>
    <rect x="126" y="254" width="20" height="20"/><rect x="150" y="284" width="16" height="16"/>
  </g>
  <text x="256" y="458" text-anchor="middle" font-family="Arial, sans-serif" font-size="42" font-weight="700" fill="#ffffff">PREDIX<tspan fill="#70ff00">AI</tspan></text>
  <text x="256" y="492" text-anchor="middle" font-family="Arial, sans-serif" font-size="24" font-weight="700" fill="#70ff00">BR</text>
</svg>
